<svg width="256" height="34" viewBox="0 0 256 34" fill="none" xmlns="http://www.w3.org/2000/svg">
<path d="M23.375 1.5V26H18.72L6.505 11.125V26H0.905V1.5H5.595L17.775 16.375V1.5H23.375ZM37.7466 26.28C35.7633 26.28 33.9783 25.8717 32.3916 25.055C30.8283 24.215 29.6033 23.06 28.7166 21.59C27.8299 20.12 27.3866 18.4517 27.3866 16.585C27.3866 14.7183 27.8299 13.05 28.7166 11.58C29.6033 10.11 30.8283 8.96667 32.3916 8.15C33.9783 7.31 35.7633 6.89 37.7466 6.89C39.7299 6.89 41.5033 7.31 43.0666 8.15C44.6299 8.96667 45.8549 10.11 46.7416 11.58C47.6283 13.05 48.0716 14.7183 48.0716 16.585C48.0716 18.4517 47.6283 20.12 46.7416 21.59C45.8549 23.06 44.6299 24.215 43.0666 25.055C41.5033 25.8717 39.7299 26.28 37.7466 26.28ZM37.7466 21.8C39.1466 21.8 40.2899 21.3333 41.1766 20.4C42.0866 19.4433 42.5416 18.1717 42.5416 16.585C42.5416 14.9983 42.0866 13.7383 41.1766 12.805C40.2899 11.8483 39.1466 11.37 37.7466 11.37C36.3466 11.37 35.1916 11.8483 34.2816 12.805C33.3716 13.7383 32.9166 14.9983 32.9166 16.585C32.9166 18.1717 33.3716 19.4433 34.2816 20.4C35.1916 21.3333 36.3466 21.8 37.7466 21.8ZM63.8662 25.09C63.3295 25.4867 62.6645 25.79 61.8712 26C61.1012 26.1867 60.2845 26.28 59.4212 26.28C57.1812 26.28 55.4428 25.7083 54.2062 24.565C52.9928 23.4217 52.3862 21.7417 52.3862 19.525V11.79H49.4812V7.59H52.3862V3.005H57.8462V7.59H62.5362V11.79H57.8462V19.455C57.8462 20.2483 58.0445 20.8667 58.4412 21.31C58.8612 21.73 59.4445 21.94 60.1912 21.94C61.0545 21.94 61.7895 21.7067 62.3962 21.24L63.8662 25.09ZM79.1811 26.42C76.6378 26.42 74.3395 25.8717 72.2861 24.775C70.2561 23.6783 68.6578 22.1733 67.4911 20.26C66.3478 18.3233 65.7761 16.1533 65.7761 13.75C65.7761 11.3467 66.3478 9.18833 67.4911 7.275C68.6578 5.33833 70.2561 3.82167 72.2861 2.725C74.3395 1.62833 76.6378 1.08 79.1811 1.08C81.7245 1.08 84.0111 1.62833 86.0411 2.725C88.0711 3.82167 89.6695 5.33833 90.8361 7.275C92.0028 9.18833 92.5861 11.3467 92.5861 13.75C92.5861 16.1533 92.0028 18.3233 90.8361 20.26C89.6695 22.1733 88.0711 23.6783 86.0411 24.775C84.0111 25.8717 81.7245 26.42 79.1811 26.42ZM79.1811 21.59C80.6278 21.59 81.9345 21.2633 83.1011 20.61C84.2678 19.9333 85.1778 19 85.8311 17.81C86.5078 16.62 86.8461 15.2667 86.8461 13.75C86.8461 12.2333 86.5078 10.88 85.8311 9.69C85.1778 8.5 84.2678 7.57833 83.1011 6.925C81.9345 6.24833 80.6278 5.91 79.1811 5.91C77.7345 5.91 76.4278 6.24833 75.2611 6.925C74.0945 7.57833 73.1728 8.5 72.4961 9.69C71.8428 10.88 71.5161 12.2333 71.5161 13.75C71.5161 15.2667 71.8428 16.62 72.4961 17.81C73.1728 19 74.0945 19.9333 75.2611 20.61C76.4278 21.2633 77.7345 21.59 79.1811 21.59ZM107.907 6.89C110.241 6.89 112.119 7.59 113.542 8.99C114.989 10.39 115.712 12.4667 115.712 15.22V26H110.252V16.06C110.252 14.5667 109.926 13.4583 109.272 12.735C108.619 11.9883 107.674 11.615 106.437 11.615C105.061 11.615 103.964 12.0467 103.147 12.91C102.331 13.75 101.922 15.01 101.922 16.69V26H96.4624V7.17H101.677V9.375C102.401 8.58167 103.299 7.975 104.372 7.555C105.446 7.11167 106.624 6.89 107.907 6.89ZM120.662 0.0299985H126.122V26H120.662V0.0299985ZM149.879 7.17L141.374 27.155C140.511 29.325 139.437 30.8533 138.154 31.74C136.894 32.6267 135.366 33.07 133.569 33.07C132.589 33.07 131.621 32.9183 130.664 32.615C129.707 32.3117 128.926 31.8917 128.319 31.355L130.314 27.47C130.734 27.8433 131.212 28.135 131.749 28.345C132.309 28.555 132.857 28.66 133.394 28.66C134.141 28.66 134.747 28.4733 135.214 28.1C135.681 27.75 136.101 27.155 136.474 26.315L136.544 26.14L128.389 7.17H134.024L139.309 19.945L144.629 7.17H149.879ZM174.962 1.5V26H170.307L158.092 11.125V26H152.492V1.5H157.182L169.362 16.375V1.5H174.962ZM189.334 26.28C187.35 26.28 185.565 25.8717 183.979 25.055C182.415 24.215 181.19 23.06 180.304 21.59C179.417 20.12 178.974 18.4517 178.974 16.585C178.974 14.7183 179.417 13.05 180.304 11.58C181.19 10.11 182.415 8.96667 183.979 8.15C185.565 7.31 187.35 6.89 189.334 6.89C191.317 6.89 193.09 7.31 194.654 8.15C196.217 8.96667 197.442 10.11 198.329 11.58C199.215 13.05 199.659 14.7183 199.659 16.585C199.659 18.4517 199.215 20.12 198.329 21.59C197.442 23.06 196.217 24.215 194.654 25.055C193.09 25.8717 191.317 26.28 189.334 26.28ZM189.334 21.8C190.734 21.8 191.877 21.3333 192.764 20.4C193.674 19.4433 194.129 18.1717 194.129 16.585C194.129 14.9983 193.674 13.7383 192.764 12.805C191.877 11.8483 190.734 11.37 189.334 11.37C187.934 11.37 186.779 11.8483 185.869 12.805C184.959 13.7383 184.504 14.9983 184.504 16.585C184.504 18.1717 184.959 19.4433 185.869 20.4C186.779 21.3333 187.934 21.8 189.334 21.8ZM215.453 25.09C214.916 25.4867 214.251 25.79 213.458 26C212.688 26.1867 211.871 26.28 211.008 26.28C208.768 26.28 207.03 25.7083 205.793 24.565C204.58 23.4217 203.973 21.7417 203.973 19.525V11.79H201.068V7.59H203.973V3.005H209.433V7.59H214.123V11.79H209.433V19.455C209.433 20.2483 209.631 20.8667 210.028 21.31C210.448 21.73 211.031 21.94 211.778 21.94C212.641 21.94 213.376 21.7067 213.983 21.24L215.453 25.09ZM236.382 16.655C236.382 16.725 236.347 17.215 236.277 18.125H222.032C222.289 19.2917 222.895 20.2133 223.852 20.89C224.809 21.5667 225.999 21.905 227.422 21.905C228.402 21.905 229.265 21.765 230.012 21.485C230.782 21.1817 231.494 20.715 232.147 20.085L235.052 23.235C233.279 25.265 230.689 26.28 227.282 26.28C225.159 26.28 223.28 25.8717 221.647 25.055C220.014 24.215 218.754 23.06 217.867 21.59C216.98 20.12 216.537 18.4517 216.537 16.585C216.537 14.7417 216.969 13.085 217.832 11.615C218.719 10.1217 219.92 8.96667 221.437 8.15C222.977 7.31 224.692 6.89 226.582 6.89C228.425 6.89 230.094 7.28667 231.587 8.08C233.08 8.87333 234.247 10.0167 235.087 11.51C235.95 12.98 236.382 14.695 236.382 16.655ZM226.617 11.02C225.38 11.02 224.342 11.37 223.502 12.07C222.662 12.77 222.149 13.7267 221.962 14.94H231.237C231.05 13.75 230.537 12.805 229.697 12.105C228.857 11.3817 227.83 11.02 226.617 11.02ZM246.352 26.28C244.789 26.28 243.26 26.0933 241.767 25.72C240.274 25.3233 239.084 24.8333 238.197 24.25L240.017 20.33C240.857 20.8667 241.872 21.31 243.062 21.66C244.252 21.9867 245.419 22.15 246.562 22.15C248.872 22.15 250.027 21.5783 250.027 20.435C250.027 19.8983 249.712 19.5133 249.082 19.28C248.452 19.0467 247.484 18.8483 246.177 18.685C244.637 18.4517 243.365 18.1833 242.362 17.88C241.359 17.5767 240.484 17.04 239.737 16.27C239.014 15.5 238.652 14.4033 238.652 12.98C238.652 11.79 238.99 10.74 239.667 9.83C240.367 8.89667 241.37 8.17333 242.677 7.66C244.007 7.14667 245.57 6.89 247.367 6.89C248.697 6.89 250.015 7.04167 251.322 7.345C252.652 7.625 253.749 8.02167 254.612 8.535L252.792 12.42C251.135 11.4867 249.327 11.02 247.367 11.02C246.2 11.02 245.325 11.1833 244.742 11.51C244.159 11.8367 243.867 12.2567 243.867 12.77C243.867 13.3533 244.182 13.7617 244.812 13.995C245.442 14.2283 246.445 14.45 247.822 14.66C249.362 14.9167 250.622 15.1967 251.602 15.5C252.582 15.78 253.434 16.305 254.157 17.075C254.88 17.845 255.242 18.9183 255.242 20.295C255.242 21.4617 254.892 22.5 254.192 23.41C253.492 24.32 252.465 25.0317 251.112 25.545C249.782 26.035 248.195 26.28 246.352 26.28Z" fill="#3D405B"/>
</svg>
