<svg id="Layer_1" data-name="Layer 1" xmlns="http://www.w3.org/2000/svg" viewBox="0 0 1125 2436"><defs><style>.cls-1{fill:#ccc;}.cls-1,.cls-2,.cls-6{stroke:#000;}.cls-1,.cls-10,.cls-2,.cls-6{stroke-miterlimit:10;}.cls-10,.cls-2{fill:#f2f2f2;}.cls-3,.cls-7{font-size:100px;font-family:MyriadPro-Regular, Myriad Pro;}.cls-3{fill:#999;}.cls-4{letter-spacing:-0.01em;}.cls-5{letter-spacing:0em;}.cls-6{fill:#9e005d;}.cls-6,.cls-9{opacity:0.2;}.cls-8{letter-spacing:0em;}.cls-10{stroke:#f2f2f2;}.cls-11{fill:#260000;}</style></defs><title>AddNote</title><rect class="cls-1" x="-0.5" y="0.5" width="1125" height="150"/><rect class="cls-2" x="-0.5" y="150.5" width="1125" height="194"/><text class="cls-3" transform="translate(62.81 287.68)"><tspan class="cls-4">T</tspan><tspan x="48.5" y="0">itl</tspan><tspan class="cls-4" x="128.6" y="0">e</tspan><tspan class="cls-5" x="177.5" y="0">...</tspan></text><rect class="cls-6" x="0.5" y="344.5" width="1125" height="2091"/><path d="M343.1,493.9c-35.7-4.07-71.67-4.57-107.56-4.31-36.16.26-72.33,1.16-108.49,0q-30.58-1-61.11-3.59c-.64-.05-.64.95,0,1,36,3.06,72.1,4.31,108.23,4.19s72.23-1.21,108.34-.28c20.24.52,40.47,1.69,60.59,4C343.74,495,343.73,494,343.1,493.9Z"/><text class="cls-7" transform="translate(64.98 485.79)">Б<tspan class="cls-8" x="54.6" y="0">е</tspan><tspan x="105.2" y="0">бе</tspan></text><path class="cls-9" d="M1009,61.05c-.07-5.29.25-10.79-.75-16-1.37-7.22-8-15.2-16-11.17-8.83,4.43-8,16.06-8,24.33q0,9.94.05,19.9a71.6,71.6,0,0,0,.12,9.15,4.56,4.56,0,0,0,2.33,3.69c2.89,1.48,6.41-.12,8-2.74,3-5.11.33-11.44,1.84-16.9a.5.5,0,0,0-1-.27c-1.15,4.15,0,8.31-.5,12.52-.26,2.36-1.14,5-3.35,6.26-2.37,1.3-5.32.72-6.13-2-.68-2.24-.31-5-.31-7.28l0-7.28q0-7,0-14.08c0-8.19-1.31-20.79,8-24.68,4.54-1.89,9.11.65,11.63,4.5s2.87,8.77,3,13.3c.22,9.67.5,19.41.26,29.09-.21,8.68-1.38,17.57-5.81,25.2-3.92,6.75-10.8,12.74-19.08,12.16a10.23,10.23,0,0,1-9.32-7.09c-1.41-4.11-1-8.84-1-13.12q-.12-33,1.61-66c0-.65-1-.64-1,0-1.24,23.92-2.15,48-1.57,72,.1,3.9.51,8.11,3.06,11.24a11.66,11.66,0,0,0,8.9,4c8.39.21,15.29-5.8,19.29-12.69,5-8.62,5.93-18.75,6-28.51C1009.25,72.73,1009.1,66.89,1009,61.05Z"/><path d="M1082,256.93c-18.5-3.48-37-6.94-55.56-10.09q-.81-68.64-2.08-137.29a.5.5,0,0,0-1,0q1.27,68.55,2.09,137.12c-13.67-2.31-27.37-4.46-41.11-6.31-32.38-4.35-65-7.09-97.73-6.45a421.17,421.17,0,0,0-54.84,4.55c-.64.09-.37,1.06.26,1,64.38-9.7,129.67-2.54,193.43,8.26q1.42,119.67,1.45,239.36,0,187.8-3.42,375.58-1.47,79.86-3.56,159.7c-7,10.65-20.11,13.92-32.53,14.19-16.23.36-32.35-3.71-48.19-6.71q-58.26-11-116.26-23.35-14.73-3.12-29.45-6.33l-13.79-3c-4.7-1-10.18-1.62-14.42-4.05-8.52-4.88-6.67-19.61-7.19-28q-.9-14.47-1.78-29c-2.41-39.26-4.73-78.53-6.72-117.81-4-78.52-6.7-157.14-6.23-235.77S747.45,425,756.18,346.71c8.81-78.93,24.38-156.82,35.54-235.41q1.92-13.55,3.64-27.11a.4.4,0,0,0-.11-.35q82.53,1.06,165.07.74,23.94-.1,47.88-.32a.5.5,0,0,0,0-1q-84.29.76-168.59.06-23.94-.21-47.88-.52a.5.5,0,0,0,0,1l2.84,0a.51.51,0,0,0-.21.36c-10.2,80.7-26.69,160.45-36.67,241.18-9.93,80.33-14.33,161.26-15.23,242.17-.89,81.12,1.71,162.23,5.73,243.23,2,40.54,4.39,81.06,6.87,121.57q.91,14.94,1.84,29.89c.31,5,.61,10,.93,14.93.23,3.65.29,7.49,1.72,10.91,2.63,6.28,9.25,7.63,15.27,9q14.7,3.27,29.42,6.44,59.81,12.91,119.88,24.46c17.15,3.3,34.46,7.55,51.87,9.14,11.91,1.08,25.46.86,36-5.57a27.48,27.48,0,0,0,7.88-7.29q-.66,25.11-1.38,50.21c0,.64,1,.64,1,0q.74-25.86,1.41-51.74a27.58,27.58,0,0,0,1.6-2.81c.29-.58-.58-1.09-.86-.51-.21.43-.46.82-.68,1.23q4.21-161.77,5.88-323.61,1.92-187.79.36-375.59-.3-36.78-.76-73.56l1.31.23c18,3.07,36,6.44,54,9.82C1082.33,258,1082.6,257.05,1082,256.93Z"/><path d="M912.5,141.59c-.16-2.76-.23-5.74-1.29-8.34a6.07,6.07,0,0,0-3.46-3.72c-2.55-.85-5.17.76-7.36,1.86q-5.8,2.94-11.33,6.38c-2.48,1.55-5.43,3.08-6.7,5.88-1.59,3.5-1.69,8.14-2.23,11.91-.14,1-.26,2-.39,3a52.62,52.62,0,0,0-3.7,26.72c.54,3.87,2.31,8.82,6.73,9.52a8.31,8.31,0,0,0,4.21-.58v15.05a.5.5,0,0,0,1,0V193.82c.51-.22,1-.45,1.5-.68a72.66,72.66,0,0,0,9.86-5.52c4.9-3.28,9.15-7.31,10.91-13.09,2.06-6.73,2.16-14.44,2.38-21.42C912.75,149.27,912.73,145.42,912.5,141.59Zm-2.15,27.52c-.89,6.33-3.37,11.33-8.38,15.37a56.26,56.26,0,0,1-14,8.28V175.64a.5.5,0,0,0-1,0v17.51l-.21.08c-6.59,2.39-9.35-3.75-9.87-9.22a53,53,0,0,1,2.24-20.7c-.19,1.63-.38,3.26-.55,4.9-.06.64.94.64,1,0q.48-4.62,1.08-9.23a58.16,58.16,0,0,1,5.75-10.9c.36-.53-.51-1-.87-.5a57.92,57.92,0,0,0-4.36,7.7c.29-2.06.6-4.11.95-6.16.57-3.45,1.13-6.21,4.15-8.36,2.44-1.74,5.07-3.26,7.66-4.75,2.41-1.39,4.87-2.71,7.36-4,1.47-.73,3.21-1.79,4.91-1.76,2.12,0,3.3,1.53,4,3.3,1,2.36,1.06,5,1.22,7.52.2,3.19.27,6.4.22,9.6A149.1,149.1,0,0,1,910.35,169.11Z"/><path d="M900,209.47q-14.67,1.34-29.3,2.91c-.64.07-.64,1.07,0,1q14.64-1.57,29.3-2.91C900.64,210.41,900.64,209.41,900,209.47Z"/><rect class="cls-10" y="2278" width="1125" height="157"/><path d="M75,2365.87c-.31,2.51-3.13,3.42-5.2,2.68a6.75,6.75,0,0,1-3.57-3.7c-1.4-3-1.45-6.42-2.45-9.53-.2-.61-1.16-.35-1,.26,1.44,4.47,1.13,11.06,5.92,13.62,2.9,1.55,6.84.08,7.26-3.33C76,2365.24,75,2365.24,75,2365.87Z"/><path d="M1241.47,2347.23c-80-6.76-160,3.26-239.4,12.45a2296,2296,0,0,1-238.93,15.11c-81.07.9-162.15-.71-243.21-1.14q-120.91-.66-241.84-.3-80.22.18-160.45.59c1.39-1.24,2.2-3.47,1-5.13-1.45-2-4.6-1.24-6.6-.75a18.52,18.52,0,0,0-8.53,4.48,13.11,13.11,0,0,0-1.3,1.48l-4.71,0c.13-2.74.26-5.49.36-8.24q.61-16.78.34-33.59a.5.5,0,0,0-1,0q.32,20-.61,40c0,.61-.07,1.22-.11,1.83l-17.19.08q-.28-6.49-.58-13c0-.64-1-.64-1,0,.2,4.33.43,8.67.63,13l-27.11.14c0-.92,0-1.84,0-2.76l.24-12a18.27,18.27,0,0,1,4,0c.63.07.63-.93,0-1a18.73,18.73,0,0,0-4,0l.63-31.84a.5.5,0,0,0-1,0q-.32,16-.64,32a18.85,18.85,0,0,0-4.84,1.46c-.59.26-.08,1.12.5.86a17.9,17.9,0,0,1,4.32-1.31c0,.46,0,.93,0,1.39l-.27,13.22-16.5.08a15.36,15.36,0,0,0-3.16-11.87,29.44,29.44,0,0,0-6.69-6.3c-3.38-2.38-8.09-3.87-9.13-8.32s1.77-8.71,4.8-11.71c1.69-1.67,3.75-3.35,6.22-3.53,3.07-.22,7.15,3.49,3.67,6.14-.51.39,0,1.26.5.87,3.47-2.65,1.12-7.36-2.7-7.95-5.42-.84-10.7,5.19-12.66,9.62a10.85,10.85,0,0,0-.61,7.52c.88,2.82,3.09,4.38,5.53,5.81,5.74,3.35,12,8,13.28,15a11.66,11.66,0,0,1-.09,4.75l-28.51.14a.5.5,0,0,0,0,1l28.23-.14c-1.87,5.82-8,10.12-14.39,9.08-.63-.1-.91.86-.27,1a14.31,14.31,0,0,0,14.34-6.8,12.52,12.52,0,0,0,1.41-3.25l16.71-.08c0,.9,0,1.8-.05,2.71-.06,2.82-.11,5.64-.17,8.47,0,1.32-.05,2.65-.08,4s.37,3.95-.6,5.09c.42-.49-.29-1.2-.7-.71a1.06,1.06,0,0,0,.52,1.81c1.54.42,1.67-1.78,1.71-2.7.25-6.21.29-12.44.39-18.66l27.17-.14c.13,3,.25,5.95.32,8.93.09,3.51,0,7.36-2,10.4s-6.06,4.91-9.42,3.05a.5.5,0,0,0-.5.87c6,3.34,11.6-2.76,12.61-8.36.76-4.25.23-8.72,0-13l-.09-1.88,17.1-.08c-.12,2.34-.24,4.69-.39,7-.1,1.65-.21,3.29-.33,4.93a11.24,11.24,0,0,0-.1,3.7c.39,1.35,1.56,1.73,2.88,1.72a48,48,0,0,0,7.57-1c3.69,1.46,8.19,1.26,12,1,.64,0,.64-1,0-1-3.41.27-7.13.49-10.48-.51a.55.55,0,0,0-.62-.59l-.73.1a10.13,10.13,0,0,1-1-.46c-5-2.71-5.86-9.18-3.21-13.86.21-.37.44-.72.68-1.06l8.84,0a10.36,10.36,0,0,0-4.5,1.7c-.51.38,0,1.25.5.87,2.51-1.86,5.77-1.42,8.49-2.59q68.7-.33,137.4-.53,124.62-.35,249.23.14c82.33.39,164.68,2,247,1.35A2297,2297,0,0,0,996,2361.37c40.65-4.67,81.29-9.7,122.11-12.71,20.12-1.48,40.29-2.47,60.46-2.67q15.72-.16,31.44.36c2.55.09,28.9.61,29,1.67.1.88-24.94,8.35-27.33,9.15-.6.2-.34,1.17.27,1l29.61-9.92A.5.5,0,0,0,1241.47,2347.23ZM101.48,2388a10,10,0,0,0,3,2.63l-1.32.18c-1.3.19-3.35.86-4.63.6-3.08-.61-1.62-6.65-1.48-8.85.16-2.51.3-5,.43-7.54l4.07,0C99.08,2378.94,98.6,2384.16,101.48,2388Zm13-19.39c1.44-.18,1.27-.21,2.55,1s1.4,1.63.44,3.05a3.86,3.86,0,0,1-1.65,1.28l-12.33.06A17.66,17.66,0,0,1,114.48,2368.63Z"/><path d="M978.78,156.85c0-.63-1-.64-1,0a168.68,168.68,0,0,1-.79,34.29,164.53,164.53,0,0,1-3.17,17.45c-1.22,5.17-2.32,11-4.79,15.77-1.1,2.12-3,4.74-5.79,4.15-3.07-.65-3.93-4.63-4.59-7.18-1.47-5.63-2.79-11.29-4-17q-3.72-17.47-5.89-35.24c-1.14-9.3-.81-21-8.44-27.77-.48-.42-1.19.28-.71.71,4,3.58,5.68,8.65,6.56,13.82,1,6,1.4,12,2.2,18q2.52,18.81,6.79,37.32c.94,4,3.53,23.86,12,17.16,3.44-2.71,4.45-7.87,5.59-11.81a166.65,166.65,0,0,0,4.18-18.34A169.34,169.34,0,0,0,978.78,156.85Z"/><path class="cls-11" d="M287.34,1203.87l-25.75-32.54c-.4-.51-1.1.21-.71.71l21.28,26.87a28.13,28.13,0,0,1,2.24,2.83c1.24,2.18,1.56,1.3,0,2.07s-5.76.23-7.79.32q-8.66.4-17.3,1-31.62,2.17-63,6.87A798.11,798.11,0,0,0,69,1241.86q-30.5,9.86-60.15,22.16Q2.42,1266.71-4,1269.5c-.67.29-7.52,3.82-7.92,3.51-1.5-1.16.42-7.22.72-8.92a280.23,280.23,0,0,1,7.85-31.62c6.28-20.64,14.14-40.76,20.53-61.36a408.23,408.23,0,0,0,14.25-65c6.11-44.09,6.71-88.82,7-133.27q.44-69.25-2.85-138.48-1.55-32.62-3.93-65.2H114a.5.5,0,0,0,0-1H31.59Q24,664.33,8.05,561.38c-7-45.3-15.7-90.24-24.59-135.2-4.54-23-8.51-46.35-7.88-69.88.13-4.84-.42-11.54,1.2-16.14l.84-1.38q.51-2.31,2.64-1c1.35-.1,3.16.61,4.51.87l9.94,1.93,33.44,6.49,33.43,6.48c.63.12.9-.84.27-1l-84.94-16.48c-.24,0-.58.07-.62.35-4.25,29.56.16,59.18,5.86,88.23C-11.8,455.51-5.54,486.3-.19,517.28q16.17,93.5,25.42,188,3.06,31.37,5.34,62.81H-318a.5.5,0,0,0,0,1H30.65Q35.15,831,36.71,893q1.15,46.78.6,93.58c-.36,30.91-1,61.89-3.82,92.7s-7.9,61.24-17,90.76c-8.63,28-20.07,55.12-26.58,83.73q-2.31,10.11-3.65,20.4c0,.42.46.57.75.43a797.82,797.82,0,0,1,232.61-64.72q33.56-4,67.37-5.14A.5.5,0,0,0,287.34,1203.87Z"/><path d="M478.68,2406.77c-.17-3.55-1.55-6.66-4.93-8.17a13.19,13.19,0,0,0-10.06.18c-9.14,3.56-14.49,13.73-19.87,21.3-.37.53.49,1,.86.51,5-7.05,9.9-16.27,17.95-20.25,4.18-2.07,10.78-2.85,13.76,1.66,2.35,3.55,1.38,9.14,0,12.9a24.34,24.34,0,0,1-16.32,15.24c-4.26,1.12-9.17,1-13-1.29-4.1-2.41-6.33-7.38-4.43-11.91.25-.59-.72-.85-1-.27-2.91,6.9,2.81,13.39,9.4,14.75,7,1.46,14.3-1.21,19.47-6S479,2413.82,478.68,2406.77Z"/><path d="M229.41,2391.28l-30.09,23.78a.51.51,0,0,0,.11.79c3.68,2.36,8.28,2.05,12.48,2.12q8.73.14,17.47,0a.51.51,0,0,0,.5-.5q-.21-12-.64-24a.47.47,0,0,0-.37-.45l1.25-1C230.62,2391.59,229.91,2390.88,229.41,2391.28Zm-.76,15.58q.09,3.36.16,6.72c0,.64.37,2.44.05,2.88-.63.86-2,.51-3,.52q-6.75.09-13.48,0c-3.93,0-8.3.3-11.85-1.62l27.68-21.88Q228.48,2400.16,228.65,2406.86Z"/><path d="M1238.91,2226.13c-.44-.47-1.15.24-.71.71,12.82,13.66,12.14,34.91,3.51,50.62-9.17,16.72-25.52,28-41.42,37.67-32.37,19.77-67.3,35.15-103.38,46.78-72.73,23.44-149.5,31.92-225.61,33.85q-8.07.21-16.12.31a12,12,0,0,0-.29-2.19c-.58-2.41-2.35-3-4.58-3.21-7.79-.88-15.88-1.42-23.22,1.82a.5.5,0,0,0-.93.24v3.47c-70.57-.26-141.09-4.52-211.65-5.31-43.13-.49-86.31.3-129.3,4.05-37.53,3.27-76.11,8.58-109,28.24-16.64,9.94-31.45,22.55-47.34,33.6-16.19,11.26-33.85,20.6-53,25.59-34.57,9-75.85,1.44-97.44-29.39-19-27.08-13.31-68.79,17.43-84.58,8.81-4.53,18.51-7,28-9.54q15.55-4.14,31.21-7.91,31.29-7.53,62.89-13.75c84.85-16.78,170.85-27.19,256.88-35.62q130.1-12.76,260.78-17.87,65-2.53,130.14-3.18c42.27-.41,84.53.66,126.79.43,29.75-.16,64-3.08,85.44-26.36,21.17-22.94,21.51-56.14,23.73-85.46,1.22-16.16,3-32.39,8.34-47.77.21-.61-.76-.87-1-.27-11.07,31.7-6.38,66-14.3,98.25-4.12,16.78-12.48,32.27-26.58,42.68s-31.8,14.8-49,16.63c-17.9,1.91-36,1.24-53.91,1q-33.33-.42-66.68-.34-67.2.16-134.39,2.36-133.81,4.36-267.21,16.77c-87,8.09-174,18.07-259.89,34.06q-32.16,6-64.08,13.21c-21,4.77-42.18,9.49-62.72,15.9-14.81,4.61-28.21,12-36.15,25.83-6.84,11.87-9.09,26.16-7.11,39.64,4.62,31.48,33,52.83,62.83,58.45,36.85,6.95,73.16-9.1,102.58-30.07,16-11.4,31.12-24.16,48.32-33.78,17.73-9.92,37.32-15.88,57.19-19.68,42.62-8.17,87-9.44,130.26-10.09,86-1.28,171.94,4.87,257.95,5.24l0,27.68a10.53,10.53,0,0,1-1-3.89c0-.64-1-.65-1,0a11.76,11.76,0,0,0,2,6.06.51.51,0,0,0,.94-.25l0-29.6c2.54,0,5.08,0,7.61,0q9.63,0,19.26-.12c0,.24,0,.48,0,.73-.11,2-.24,4-.35,6l-.76,12.88-.73,12.39c-.11,1.86.21,4.65-.38,6.44-1.23,3.74-4.52,2.31-7.2,1.9a188.62,188.62,0,0,1-24-5.29.5.5,0,0,0-.27,1,188.88,188.88,0,0,0,23.5,5.23c2,.31,5.78,1.54,7.71.16a3.15,3.15,0,0,0,1.15-2.13,43.68,43.68,0,0,0,.39-6.28q.75-12.63,1.49-25.27c.14-2.38.62-5.11.63-7.69,70.76-1,141.84-7.09,210.44-25,36.74-9.6,72.65-22.65,106.47-40,16.37-8.39,32.89-17.48,47.49-28.74,12.71-9.79,24.22-22.42,28-38.42C1250.86,2251.32,1248.68,2236.55,1238.91,2226.13ZM827.16,2396.2v-2.72a.67.67,0,0,0,.24,0c6.87-3.11,15.57-3.1,22.91-1.77,3.26.58,3.76,2.18,3.74,4.41Q840.61,2396.26,827.16,2396.2Z"/><path d="M183.49,1563.22q-70.07-28.41-141.3-53.82c-47.29-16.85-94.92-32.8-142.92-47.51-23.41-7.17-47.17-13.75-71.6-16.22-18.93-1.91-40.79-2.56-57.81,7.43-7.07,4.15-12.71,10.35-15.3,18.2-3.46,10.49-2,22.27-1.27,33.07a661.69,661.69,0,0,0,8.37,70.89,667,667,0,0,0,29,110.49,302.62,302.62,0,0,0-32.44.4c-9.43.7-19,2.26-27.64,6.34A39.21,39.21,0,0,0-288.65,1712c-4.07,9.08-5.24,19.16-5.89,29a302.74,302.74,0,0,0,21.62,133.45c-1.08,1.12-2.12,2.28-3.13,3.46-9.09-1.15-18.19-2.21-27.31-3-25.48-2.26-57.23-1.9-74.83,19.89-18.47,22.87-10.59,56.07,5.93,77.55,16,20.86,40.41,33.11,65.15,40.48,28,8.34,57.2,10.87,86.23,12.78,39.27,2.59,78.63,3.86,118,4.13s78.4-.48,117.57-1.91c39.38-1.43,78.72-3.57,118-6.09q14.26-.91,28.53-1.89c.64,0,.64-1,0-1-38.23,2.61-76.48,4.94-114.75,6.68-38.45,1.74-76.93,2.91-115.42,3.19-38.27.28-76.56-.3-114.8-2-32.49-1.48-65.43-2.72-97.47-8.7-26-4.86-52.62-13.07-73.71-29.63-21.85-17.16-38-45.67-31.51-74.1a47,47,0,0,1,26.14-32.08c12.63-6,27-7.31,40.84-7.13,14.25.19,28.43,2.1,42.55,3.88a79.74,79.74,0,0,0-13.9,24.57c-3.49,10-5.59,22.68.73,32.09,3.29,4.9,8.48,7.9,13.56,10.64q9.31,5,18.69,9.93c24.84,12.93,50.6,24.67,78.31,29.8a196.29,196.29,0,0,0,92.62-5.22c.62-.19.35-1.15-.26-1a195.59,195.59,0,0,1-79.43,7.13c-27-3.16-52.4-12.63-76.71-24.51-11.77-5.76-23.46-11.81-34.89-18.22-5.76-3.23-11-7.23-13.33-13.65-2-5.48-1.89-11.53-.89-17.21,2.22-12.56,8.26-24.4,16.61-34.25l3.17.4,1.88.24q3.15,7.33,6.68,14.5c.28.58,1.14.08.86-.5q-3.37-6.84-6.38-13.85,27.27,3.39,54.49,7.15,56.28,7.83,112.32,17.31,56.28,9.53,112.27,20.73,13.6,2.71,27.19,5.54c.63.13.9-.83.27-1q-57-11.82-114.23-21.92-57.54-10.14-115.37-18.51-28.31-4.11-56.69-7.78l-20.74-2.72c-.57-1.34-1.13-2.68-1.68-4a80.66,80.66,0,0,1,17-13.25c23.66-13.74,54-13.45,77.69,0a.5.5,0,0,0,.5-.86,80.53,80.53,0,0,0-70.05-4.28,78.84,78.84,0,0,0-25.5,17.44,302.52,302.52,0,0,1-22-115.56c.09-10.95.4-22.17,2.52-32.93,2-10.1,6.12-19.85,14.25-26.52,7.83-6.42,17.93-9.3,27.8-10.69,10.42-1.48,21.07-1.51,31.57-1.41,3,0,6.05.1,9.07.2q4.74,13.2,10,26.18,3.18,7.79,6.53,15.47c.26.59,1.12.08.87-.5q-8.85-20.28-16.33-41.1c40.81,1.48,81.18,9.44,120.08,21.73,43.15,13.64,84.51,32.42,124.49,53.52s78.62,44.57,117,68.47l14.13,8.84a.5.5,0,0,0,.6-.79l-31.21-29.72c-.47-.45-1.18.26-.71.7l27.66,26.34c-38-23.78-76.18-47.28-115.59-68.64-40.28-21.83-81.91-41.51-125.37-56.18-42.4-14.32-86.59-23.73-131.4-25.3a666.28,666.28,0,0,1-36-163c-1-11.38-2-22.85-2.2-34.29-.19-10.64,1.62-21.17,9.44-28.94,13.55-13.47,35.4-14.52,53.3-13.75,24.57,1.05,48.64,6.91,72.15,13.82,47.17,13.86,93.85,29.67,140.22,46q69.26,24.38,137.45,51.63,8.58,3.42,17.14,6.9C183.82,1564.43,184.08,1563.46,183.49,1563.22Zm-454.72,315.32-3.68-.48c.78-.89,1.58-1.76,2.39-2.61C-272.09,1876.48-271.67,1877.51-271.23,1878.54Z"/><path d="M226.17,1504.7q-60.85-36-124.65-66.57-62.94-30.2-128.29-54.93c-44.5-16.84-89.76-32.23-136.23-42.69a553.75,553.75,0,0,0-69.17-11.25c-14.66-1.39-36-3.79-46.21,9.72-6.31,8.32-4.31,19.35-3.34,29q1.91,18.87,3.82,37.74,3.79,37.48,7.58,75l1.83,18.12c.07.63,1.07.64,1,0q-3.72-36.73-7.43-73.47l-3.66-36.24q-.94-9.3-1.88-18.62c-.57-5.57-1.4-11.2-1.34-16.82.12-10.3,5.41-18.1,15.06-21.66,7.78-2.88,16.45-3.08,24.64-2.56,23.33,1.5,46.6,5.22,69.46,10,45.43,9.51,89.67,24,133.16,40.07S47,1413.55,89,1433.29q62.27,29.25,121.91,63.66,7.4,4.26,14.75,8.61A.5.5,0,0,0,226.17,1504.7Z"/><path d="M1116,2155.72q-5.71-5.4-11.52-10.72a17.5,17.5,0,0,0-4.33-3.93q-12.54-11.36-25.43-22.32-9.78-8.28-19.78-16.29l3.66-4.38c.41-.49-.29-1.2-.7-.71l-3.73,4.46-3.61-2.92c-.5-.39-1.21.31-.71.71,1.23,1,2.45,2,3.68,3l-28.77,34.35q-19.83.58-39.61,2.22c-.64.05-.64,1.05,0,1q19.35-1.6,38.75-2.19L1006,2159.33q-1.15-5.07-2.55-10.09a.5.5,0,0,0-1,.26q1.49,5.37,2.7,10.78-9,10.78-18.05,21.56L967,2205.92c-.22.26-.19.77.22.84,11,2,22-.85,32.77-2.86.72-.13,1.45-.25,2.17-.39a202.79,202.79,0,0,0-.45,32.79.52.52,0,0,0,.5.5l71,8.18c11.94,1.38,23.92,3.19,35.9,4.14,3.7.29,5-2,5.4-5.39.61-5.74.8-11.56,1-17.33a325.38,325.38,0,0,0-.78-33.49q14.31-.12,28.61.38a.5.5,0,0,0,.49-.63C1140.72,2177.11,1126.94,2166.06,1116,2155.72Zm-77.56-33.56,15.87-18.94q18.8,15.14,36.88,31.13l5.85,5.2c-4.52-1.7-9.55-1.75-14.31-2q-8.87-.45-17.74-.68-19.46-.51-38.9,0Zm-13.21,15.78q18.39-.53,36.8-.13,9.62.21,19.22.68c6,.29,12.89.07,18.25,3.32.12.07.23.16.35.24l4,3.6c5.2,6.44,6.15,16.42,7.29,24.12q1.63,11,2.49,22.16a661.32,661.32,0,0,0-102.17,9,222.82,222.82,0,0,0-5.16-40.34Zm-56.93,68,37.18-44.4a220.93,220.93,0,0,1,5,39.53l-3.08.51c-1.36.24-2.73.5-4.11.77.64-6.24,1.55-12.45,2.77-18.61.12-.63-.84-.9-1-.27q-1.86,9.48-2.82,19.09C991.13,2204.79,979.55,2207.72,968.32,2205.92Zm146.19,2.48q.26,9.24,0,18.49-.13,4.62-.41,9.24c-.18,3,.06,6.79-.93,9.71-1.23,3.65-6.54,2-9.34,1.67l-9.86-1.14-19.23-2.21-38.46-4.44-21.2-2.45c-3.53-.4-7.41-.4-10.85-1.25-1.13-.27-1.24-.07-1.57-1.17a13.77,13.77,0,0,1-.16-2.88c-.08-1.77-.14-3.53-.18-5.3a195.55,195.55,0,0,1,.91-23.34q3.66-.66,7.32-1.28c.07,2.34.11,4.67.11,7a.5.5,0,0,0,1,0q0-3.58-.12-7.17,11.72-2,23.48-3.51a661.83,661.83,0,0,1,68.91-5.31c3.27-.08,6.55-.13,9.82-.16Q1114.3,2200.64,1114.51,2208.4Zm.14-16.48c0-.17,0-.35,0-.53a250.38,250.38,0,0,0-4.29-32.52,39.56,39.56,0,0,0-3.81-10.83c7.81,7.1,15.49,14.36,22.74,22,6.08,6.37,11.52,13.55,13.45,22.28Q1128.69,2191.8,1114.65,2191.92Z"/><path d="M106.67,74.32l-10-1.89c-.63-.12-.9.84-.27,1l.17,0a122,122,0,0,0-35.93,3.62.5.5,0,0,0,.27,1,121.26,121.26,0,0,1,45.61-2.72C107.09,75.37,107.22,74.42,106.67,74.32Z"/><path d="M62.62,96.21a32,32,0,0,1-13.41-1.75c-2.85-1-7.55-2.65-6.31-6.59.68-2.18,2.14-4.24,3.24-6.22q6.93-12.6,14.32-24.93a.5.5,0,0,0-.86-.5Q54.92,64,50.42,71.94c-2.75,4.85-6.08,9.77-8.2,14.93-1.78,4.33,1.42,6.36,5.06,7.9a32.76,32.76,0,0,0,15.34,2.44C63.26,97.16,63.26,96.16,62.62,96.21Z"/></svg>