<svg width="50" height="50" viewBox="0 0 50 50" fill="none" xmlns="http://www.w3.org/2000/svg">
<path d="M25 15.625C25.4144 15.625 25.8118 15.7896 26.1049 16.0826C26.3979 16.3757 26.5625 16.7731 26.5625 17.1875V23.4375H32.8125C33.2269 23.4375 33.6243 23.6021 33.9174 23.8951C34.2104 24.1882 34.375 24.5856 34.375 25C34.375 25.4144 34.2104 25.8118 33.9174 26.1049C33.6243 26.3979 33.2269 26.5625 32.8125 26.5625H26.5625V32.8125C26.5625 33.2269 26.3979 33.6243 26.1049 33.9174C25.8118 34.2104 25.4144 34.375 25 34.375C24.5856 34.375 24.1882 34.2104 23.8951 33.9174C23.6021 33.6243 23.4375 33.2269 23.4375 32.8125V26.5625H17.1875C16.7731 26.5625 16.3757 26.3979 16.0826 26.1049C15.7896 25.8118 15.625 25.4144 15.625 25C15.625 24.5856 15.7896 24.1882 16.0826 23.8951C16.3757 23.6021 16.7731 23.4375 17.1875 23.4375H23.4375V17.1875C23.4375 16.7731 23.6021 16.3757 23.8951 16.0826C24.1882 15.7896 24.5856 15.625 25 15.625Z" fill="#81B29A"/>
<path d="M6.25 25C6.25 22.5377 6.73498 20.0995 7.67726 17.8247C8.61953 15.5498 10.0006 13.4828 11.7417 11.7417C13.4828 10.0006 15.5498 8.61953 17.8247 7.67726C20.0995 6.73498 22.5377 6.25 25 6.25C27.4623 6.25 29.9005 6.73498 32.1753 7.67726C34.4502 8.61953 36.5172 10.0006 38.2583 11.7417C39.9994 13.4828 41.3805 15.5498 42.3227 17.8247C43.265 20.0995 43.75 22.5377 43.75 25C43.75 29.9728 41.7746 34.7419 38.2583 38.2583C34.7419 41.7746 29.9728 43.75 25 43.75C20.0272 43.75 15.2581 41.7746 11.7417 38.2583C8.22544 34.7419 6.25 29.9728 6.25 25ZM25 9.375C20.856 9.375 16.8817 11.0212 13.9515 13.9515C11.0212 16.8817 9.375 20.856 9.375 25C9.375 29.144 11.0212 33.1183 13.9515 36.0485C16.8817 38.9788 20.856 40.625 25 40.625C29.144 40.625 33.1183 38.9788 36.0485 36.0485C38.9788 33.1183 40.625 29.144 40.625 25C40.625 20.856 38.9788 16.8817 36.0485 13.9515C33.1183 11.0212 29.144 9.375 25 9.375Z" fill="#81B29A"/>
</svg>
