<svg width="36" height="33" viewBox="0 0 36 33" fill="none" xmlns="http://www.w3.org/2000/svg">
<path d="M18.4725 26.8125C23.211 26.8125 26.1495 24.5706 26.1495 20.9901C26.1495 18.2965 23.9355 16.2814 20.9205 16.069V15.9555C22.0751 15.7962 23.1296 15.2638 23.8937 14.4544C24.6578 13.6451 25.0812 12.6121 25.0875 11.5418C25.0875 8.42739 22.473 6.46802 18.306 6.46802H8.64673V26.8125H18.4725ZM13.293 9.64014H17.109C19.2757 9.64014 20.5222 10.5703 20.5222 12.2059C20.5222 13.926 19.107 14.9284 16.6297 14.9284H13.293V9.63808V9.64014ZM13.293 23.6404V17.7334H17.1855C19.9237 17.7334 21.4155 18.7481 21.4155 20.6518C21.4155 22.5968 19.9687 23.6404 17.2935 23.6404H13.2907H13.293Z" fill="#81B29A"/>
</svg>
