<svg width="23" height="23" viewBox="0 0 23 23" fill="none" xmlns="http://www.w3.org/2000/svg">
<g clip-path="url(#clip0_52_460)">
<path d="M10.0625 3.59375C10.0625 3.40313 10.1382 3.22031 10.273 3.08552C10.4078 2.95073 10.5906 2.875 10.7812 2.875H20.8438C21.0344 2.875 21.2172 2.95073 21.352 3.08552C21.4868 3.22031 21.5625 3.40313 21.5625 3.59375V5.03125C21.5625 5.22187 21.4868 5.40469 21.352 5.53948C21.2172 5.67427 21.0344 5.75 20.8438 5.75H10.7812C10.5906 5.75 10.4078 5.67427 10.273 5.53948C10.1382 5.40469 10.0625 5.22187 10.0625 5.03125V3.59375ZM2.875 1.4375C2.1125 1.4375 1.38124 1.7404 0.842068 2.27957C0.302901 2.81874 0 3.55 0 4.3125L0 7.1875C0 7.95 0.302901 8.68126 0.842068 9.22043C1.38124 9.7596 2.1125 10.0625 2.875 10.0625H5.75C6.5125 10.0625 7.24376 9.7596 7.78293 9.22043C8.3221 8.68126 8.625 7.95 8.625 7.1875V4.3125C8.625 3.55 8.3221 2.81874 7.78293 2.27957C7.24376 1.7404 6.5125 1.4375 5.75 1.4375H2.875ZM2.875 12.9375C2.1125 12.9375 1.38124 13.2404 0.842068 13.7796C0.302901 14.3187 0 15.05 0 15.8125L0 18.6875C0 19.45 0.302901 20.1813 0.842068 20.7204C1.38124 21.2596 2.1125 21.5625 2.875 21.5625H5.75C6.5125 21.5625 7.24376 21.2596 7.78293 20.7204C8.3221 20.1813 8.625 19.45 8.625 18.6875V15.8125C8.625 15.05 8.3221 14.3187 7.78293 13.7796C7.24376 13.2404 6.5125 12.9375 5.75 12.9375H2.875ZM4.10262 7.69637C4.03586 7.76331 3.95654 7.81642 3.86922 7.85265C3.7819 7.88888 3.68829 7.90753 3.59375 7.90753C3.49921 7.90753 3.4056 7.88888 3.31828 7.85265C3.23096 7.81642 3.15164 7.76331 3.08487 7.69637L1.64737 6.25887C1.58055 6.19205 1.52754 6.11271 1.49137 6.0254C1.45521 5.93809 1.43659 5.84451 1.43659 5.75C1.43659 5.65549 1.45521 5.56191 1.49137 5.4746C1.52754 5.38729 1.58055 5.30795 1.64737 5.24112C1.7142 5.1743 1.79354 5.12129 1.88085 5.08512C1.96816 5.04896 2.06174 5.03034 2.15625 5.03034C2.25076 5.03034 2.34434 5.04896 2.43165 5.08512C2.51896 5.12129 2.5983 5.1743 2.66512 5.24112L3.59375 6.17119L5.95988 3.80362C6.0267 3.7368 6.10604 3.68379 6.19335 3.64762C6.28066 3.61146 6.37424 3.59284 6.46875 3.59284C6.56326 3.59284 6.65684 3.61146 6.74415 3.64762C6.83146 3.68379 6.9108 3.7368 6.97762 3.80362C7.04445 3.87045 7.09746 3.94979 7.13363 4.0371C7.16979 4.12441 7.18841 4.21799 7.18841 4.3125C7.18841 4.40701 7.16979 4.50059 7.13363 4.5879C7.09746 4.67521 7.04445 4.75455 6.97762 4.82138L4.10262 7.69637ZM4.10262 19.1964C4.03586 19.2633 3.95654 19.3164 3.86922 19.3526C3.7819 19.3889 3.68829 19.4075 3.59375 19.4075C3.49921 19.4075 3.4056 19.3889 3.31828 19.3526C3.23096 19.3164 3.15164 19.2633 3.08487 19.1964L1.64737 17.7589C1.51241 17.6239 1.43659 17.4409 1.43659 17.25C1.43659 17.0591 1.51241 16.8761 1.64737 16.7411C1.78234 16.6062 1.96538 16.5303 2.15625 16.5303C2.34712 16.5303 2.53016 16.6062 2.66512 16.7411L3.59375 17.6712L5.95988 15.3036C6.09484 15.1687 6.27788 15.0928 6.46875 15.0928C6.65962 15.0928 6.84266 15.1687 6.97762 15.3036C7.11259 15.4386 7.18841 15.6216 7.18841 15.8125C7.18841 16.0034 7.11259 16.1864 6.97762 16.3214L4.10262 19.1964ZM10.0625 15.0938C10.0625 14.9031 10.1382 14.7203 10.273 14.5855C10.4078 14.4507 10.5906 14.375 10.7812 14.375H20.8438C21.0344 14.375 21.2172 14.4507 21.352 14.5855C21.4868 14.7203 21.5625 14.9031 21.5625 15.0938V16.5312C21.5625 16.7219 21.4868 16.9047 21.352 17.0395C21.2172 17.1743 21.0344 17.25 20.8438 17.25H10.7812C10.5906 17.25 10.4078 17.1743 10.273 17.0395C10.1382 16.9047 10.0625 16.7219 10.0625 16.5312V15.0938ZM10.0625 7.90625C10.0625 7.71563 10.1382 7.53281 10.273 7.39802C10.4078 7.26323 10.5906 7.1875 10.7812 7.1875H17.9688C18.1594 7.1875 18.3422 7.26323 18.477 7.39802C18.6118 7.53281 18.6875 7.71563 18.6875 7.90625C18.6875 8.09687 18.6118 8.27969 18.477 8.41448C18.3422 8.54927 18.1594 8.625 17.9688 8.625H10.7812C10.5906 8.625 10.4078 8.54927 10.273 8.41448C10.1382 8.27969 10.0625 8.09687 10.0625 7.90625ZM10.0625 19.4062C10.0625 19.2156 10.1382 19.0328 10.273 18.898C10.4078 18.7632 10.5906 18.6875 10.7812 18.6875H17.9688C18.1594 18.6875 18.3422 18.7632 18.477 18.898C18.6118 19.0328 18.6875 19.2156 18.6875 19.4062C18.6875 19.5969 18.6118 19.7797 18.477 19.9145C18.3422 20.0493 18.1594 20.125 17.9688 20.125H10.7812C10.5906 20.125 10.4078 20.0493 10.273 19.9145C10.1382 19.7797 10.0625 19.5969 10.0625 19.4062Z" fill="#81B29A"/>
</g>
<defs>
<clipPath id="clip0_52_460">
<rect width="23" height="23" fill="white"/>
</clipPath>
</defs>
</svg>
