<svg width="22" height="19" viewBox="0 0 22 19" fill="none" xmlns="http://www.w3.org/2000/svg">
<path fill-rule="evenodd" clip-rule="evenodd" d="M0 18.05C0 17.798 0.0965773 17.5564 0.268486 17.3782C0.440394 17.2001 0.673552 17.1 0.916667 17.1H13.75C13.9931 17.1 14.2263 17.2001 14.3982 17.3782C14.5701 17.5564 14.6667 17.798 14.6667 18.05C14.6667 18.302 14.5701 18.5436 14.3982 18.7218C14.2263 18.8999 13.9931 19 13.75 19H0.916667C0.673552 19 0.440394 18.8999 0.268486 18.7218C0.0965773 18.5436 0 18.302 0 18.05ZM0 12.35C0 12.098 0.0965773 11.8564 0.268486 11.6782C0.440394 11.5001 0.673552 11.4 0.916667 11.4H21.0833C21.3264 11.4 21.5596 11.5001 21.7315 11.6782C21.9034 11.8564 22 12.098 22 12.35C22 12.602 21.9034 12.8436 21.7315 13.0218C21.5596 13.1999 21.3264 13.3 21.0833 13.3H0.916667C0.673552 13.3 0.440394 13.1999 0.268486 13.0218C0.0965773 12.8436 0 12.602 0 12.35ZM0 6.65C0 6.39804 0.0965773 6.15641 0.268486 5.97825C0.440394 5.80009 0.673552 5.7 0.916667 5.7H13.75C13.9931 5.7 14.2263 5.80009 14.3982 5.97825C14.5701 6.15641 14.6667 6.39804 14.6667 6.65C14.6667 6.90196 14.5701 7.14359 14.3982 7.32175C14.2263 7.49991 13.9931 7.6 13.75 7.6H0.916667C0.673552 7.6 0.440394 7.49991 0.268486 7.32175C0.0965773 7.14359 0 6.90196 0 6.65ZM0 0.95C0 0.698044 0.0965773 0.456408 0.268486 0.278249C0.440394 0.100089 0.673552 0 0.916667 0H21.0833C21.3264 0 21.5596 0.100089 21.7315 0.278249C21.9034 0.456408 22 0.698044 22 0.95C22 1.20196 21.9034 1.44359 21.7315 1.62175C21.5596 1.79991 21.3264 1.9 21.0833 1.9H0.916667C0.673552 1.9 0.440394 1.79991 0.268486 1.62175C0.0965773 1.44359 0 1.20196 0 0.95Z" fill="#81B29A"/>
</svg>
