<svg width="23" height="19" viewBox="0 0 23 19" fill="none" xmlns="http://www.w3.org/2000/svg">
<path fill-rule="evenodd" clip-rule="evenodd" d="M6.57143 17.1C6.57143 16.848 6.65797 16.6064 6.81202 16.4282C6.96607 16.2501 7.175 16.15 7.39286 16.15H22.1786C22.3964 16.15 22.6054 16.2501 22.7594 16.4282C22.9135 16.6064 23 16.848 23 17.1C23 17.352 22.9135 17.5936 22.7594 17.7718C22.6054 17.9499 22.3964 18.05 22.1786 18.05H7.39286C7.175 18.05 6.96607 17.9499 6.81202 17.7718C6.65797 17.5936 6.57143 17.352 6.57143 17.1ZM6.57143 9.5C6.57143 9.24804 6.65797 9.00641 6.81202 8.82825C6.96607 8.65009 7.175 8.55 7.39286 8.55H22.1786C22.3964 8.55 22.6054 8.65009 22.7594 8.82825C22.9135 9.00641 23 9.24804 23 9.5C23 9.75196 22.9135 9.99359 22.7594 10.1718C22.6054 10.3499 22.3964 10.45 22.1786 10.45H7.39286C7.175 10.45 6.96607 10.3499 6.81202 10.1718C6.65797 9.99359 6.57143 9.75196 6.57143 9.5ZM6.57143 1.9C6.57143 1.64804 6.65797 1.40641 6.81202 1.22825C6.96607 1.05009 7.175 0.95 7.39286 0.95H22.1786C22.3964 0.95 22.6054 1.05009 22.7594 1.22825C22.9135 1.40641 23 1.64804 23 1.9C23 2.15196 22.9135 2.39359 22.7594 2.57175C22.6054 2.74991 22.3964 2.85 22.1786 2.85H7.39286C7.175 2.85 6.96607 2.74991 6.81202 2.57175C6.65797 2.39359 6.57143 2.15196 6.57143 1.9ZM1.64286 3.8C2.07857 3.8 2.49644 3.59982 2.80453 3.2435C3.11263 2.88718 3.28571 2.40391 3.28571 1.9C3.28571 1.39609 3.11263 0.912816 2.80453 0.556497C2.49644 0.200178 2.07857 0 1.64286 0C1.20714 0 0.789277 0.200178 0.481182 0.556497C0.173086 0.912816 0 1.39609 0 1.9C0 2.40391 0.173086 2.88718 0.481182 3.2435C0.789277 3.59982 1.20714 3.8 1.64286 3.8ZM1.64286 11.4C2.07857 11.4 2.49644 11.1998 2.80453 10.8435C3.11263 10.4872 3.28571 10.0039 3.28571 9.5C3.28571 8.99609 3.11263 8.51282 2.80453 8.1565C2.49644 7.80018 2.07857 7.6 1.64286 7.6C1.20714 7.6 0.789277 7.80018 0.481182 8.1565C0.173086 8.51282 0 8.99609 0 9.5C0 10.0039 0.173086 10.4872 0.481182 10.8435C0.789277 11.1998 1.20714 11.4 1.64286 11.4ZM1.64286 19C2.07857 19 2.49644 18.7998 2.80453 18.4435C3.11263 18.0872 3.28571 17.6039 3.28571 17.1C3.28571 16.5961 3.11263 16.1128 2.80453 15.7565C2.49644 15.4002 2.07857 15.2 1.64286 15.2C1.20714 15.2 0.789277 15.4002 0.481182 15.7565C0.173086 16.1128 0 16.5961 0 17.1C0 17.6039 0.173086 18.0872 0.481182 18.4435C0.789277 18.7998 1.20714 19 1.64286 19Z" fill="#81B29A"/>
</svg>
