<svg width="45" height="45" viewBox="0 0 45 45" fill="none" xmlns="http://www.w3.org/2000/svg">
<path d="M11.25 11.25C11.25 10.7527 11.4475 10.2758 11.7992 9.92418C12.1508 9.57254 12.6277 9.375 13.125 9.375H31.875C32.3723 9.375 32.8492 9.57254 33.2008 9.92418C33.5525 10.2758 33.75 10.7527 33.75 11.25C33.75 11.7473 33.5525 12.2242 33.2008 12.5758C32.8492 12.9275 32.3723 13.125 31.875 13.125H13.125C12.6277 13.125 12.1508 12.9275 11.7992 12.5758C11.4475 12.2242 11.25 11.7473 11.25 11.25ZM11.25 18.75C11.25 18.2527 11.4475 17.7758 11.7992 17.4242C12.1508 17.0725 12.6277 16.875 13.125 16.875H31.875C32.3723 16.875 32.8492 17.0725 33.2008 17.4242C33.5525 17.7758 33.75 18.2527 33.75 18.75C33.75 19.2473 33.5525 19.7242 33.2008 20.0758C32.8492 20.4275 32.3723 20.625 31.875 20.625H13.125C12.6277 20.625 12.1508 20.4275 11.7992 20.0758C11.4475 19.7242 11.25 19.2473 11.25 18.75ZM13.125 24.375C12.6277 24.375 12.1508 24.5725 11.7992 24.9242C11.4475 25.2758 11.25 25.7527 11.25 26.25C11.25 26.7473 11.4475 27.2242 11.7992 27.5758C12.1508 27.9275 12.6277 28.125 13.125 28.125H31.875C32.3723 28.125 32.8492 27.9275 33.2008 27.5758C33.5525 27.2242 33.75 26.7473 33.75 26.25C33.75 25.7527 33.5525 25.2758 33.2008 24.9242C32.8492 24.5725 32.3723 24.375 31.875 24.375H13.125ZM11.25 33.75C11.25 33.2527 11.4475 32.7758 11.7992 32.4242C12.1508 32.0725 12.6277 31.875 13.125 31.875H20.625C21.1223 31.875 21.5992 32.0725 21.9508 32.4242C22.3025 32.7758 22.5 33.2527 22.5 33.75C22.5 34.2473 22.3025 34.7242 21.9508 35.0758C21.5992 35.4275 21.1223 35.625 20.625 35.625H13.125C12.6277 35.625 12.1508 35.4275 11.7992 35.0758C11.4475 34.7242 11.25 34.2473 11.25 33.75Z" fill="white"/>
<path fill-rule="evenodd" clip-rule="evenodd" d="M3.75 7.5C3.75 6.00816 4.34263 4.57742 5.39752 3.52252C6.45242 2.46763 7.88316 1.875 9.375 1.875H35.625C37.1168 1.875 38.5476 2.46763 39.6025 3.52252C40.6574 4.57742 41.25 6.00816 41.25 7.5V37.5C41.25 38.9918 40.6574 40.4226 39.6025 41.4775C38.5476 42.5324 37.1168 43.125 35.625 43.125H9.375C7.88316 43.125 6.45242 42.5324 5.39752 41.4775C4.34263 40.4226 3.75 38.9918 3.75 37.5V7.5ZM9.375 5.625H35.625C36.1223 5.625 36.5992 5.82254 36.9508 6.17417C37.3025 6.52581 37.5 7.00272 37.5 7.5V37.5C37.5 37.9973 37.3025 38.4742 36.9508 38.8258C36.5992 39.1775 36.1223 39.375 35.625 39.375H9.375C8.87772 39.375 8.40081 39.1775 8.04918 38.8258C7.69754 38.4742 7.5 37.9973 7.5 37.5V7.5C7.5 7.00272 7.69754 6.52581 8.04918 6.17417C8.40081 5.82254 8.87772 5.625 9.375 5.625Z" fill="white"/>
</svg>
