<svg width="45" height="45" viewBox="0 0 45 45" fill="none" xmlns="http://www.w3.org/2000/svg">
<path d="M13.125 33.75C11.0625 33.75 9.39375 35.4375 9.39375 37.5C9.39375 39.5625 11.0625 41.25 13.125 41.25C15.1875 41.25 16.875 39.5625 16.875 37.5C16.875 35.4375 15.1875 33.75 13.125 33.75ZM31.875 33.75C29.8125 33.75 28.1437 35.4375 28.1437 37.5C28.1437 39.5625 29.8125 41.25 31.875 41.25C33.9375 41.25 35.625 39.5625 35.625 37.5C35.625 35.4375 33.9375 33.75 31.875 33.75ZM29.1562 24.375C30.5625 24.375 31.8 23.6063 32.4375 22.4438L39.15 10.275C39.308 9.9908 39.3891 9.67026 39.3852 9.3451C39.3813 9.01995 39.2926 8.70145 39.1278 8.42112C38.963 8.14078 38.7278 7.90834 38.4456 7.74678C38.1634 7.58523 37.8439 7.50016 37.5187 7.5H9.76875L8.00625 3.75H1.875V7.5H5.625L12.375 21.7313L9.84375 26.3062C8.475 28.8188 10.275 31.875 13.125 31.875H35.625V28.125H13.125L15.1875 24.375H29.1562ZM11.55 11.25H34.3312L29.1562 20.625H15.9937L11.55 11.25Z" fill="white"/>
</svg>
