<svg width="53" height="48" viewBox="0 0 53 48" fill="none" xmlns="http://www.w3.org/2000/svg">
<path d="M18.6328 8.625H18.2188C18.4465 8.625 18.6328 8.45625 18.6328 8.25V8.625H34.3672V8.25C34.3672 8.45625 34.5535 8.625 34.7812 8.625H34.3672V12H38.0938V8.25C38.0938 6.59531 36.6083 5.25 34.7812 5.25H18.2188C16.3917 5.25 14.9062 6.59531 14.9062 8.25V12H18.6328V8.625ZM44.7188 12H8.28125C7.36514 12 6.625 12.6703 6.625 13.5V15C6.625 15.2063 6.81133 15.375 7.03906 15.375H10.1652L11.4437 39.8906C11.5265 41.4891 12.986 42.75 14.751 42.75H38.249C40.0191 42.75 41.4735 41.4938 41.5564 39.8906L42.8348 15.375H45.9609C46.1887 15.375 46.375 15.2063 46.375 15V13.5C46.375 12.6703 45.6349 12 44.7188 12ZM37.8505 39.375H15.1495L13.897 15.375H39.103L37.8505 39.375Z" fill="#81B29A"/>
</svg>
