<svg width="22" height="19" viewBox="0 0 22 19" fill="none" xmlns="http://www.w3.org/2000/svg">
<path fill-rule="evenodd" clip-rule="evenodd" d="M3.66667 18.05C3.66667 17.798 3.76324 17.5564 3.93515 17.3782C4.10706 17.2001 4.34022 17.1 4.58333 17.1H17.4167C17.6598 17.1 17.8929 17.2001 18.0648 17.3782C18.2368 17.5564 18.3333 17.798 18.3333 18.05C18.3333 18.302 18.2368 18.5436 18.0648 18.7218C17.8929 18.8999 17.6598 19 17.4167 19H4.58333C4.34022 19 4.10706 18.8999 3.93515 18.7218C3.76324 18.5436 3.66667 18.302 3.66667 18.05ZM0 12.35C0 12.098 0.0965773 11.8564 0.268486 11.6782C0.440394 11.5001 0.673552 11.4 0.916667 11.4H21.0833C21.3264 11.4 21.5596 11.5001 21.7315 11.6782C21.9034 11.8564 22 12.098 22 12.35C22 12.602 21.9034 12.8436 21.7315 13.0218C21.5596 13.1999 21.3264 13.3 21.0833 13.3H0.916667C0.673552 13.3 0.440394 13.1999 0.268486 13.0218C0.0965773 12.8436 0 12.602 0 12.35ZM3.66667 6.65C3.66667 6.39804 3.76324 6.15641 3.93515 5.97825C4.10706 5.80009 4.34022 5.7 4.58333 5.7H17.4167C17.6598 5.7 17.8929 5.80009 18.0648 5.97825C18.2368 6.15641 18.3333 6.39804 18.3333 6.65C18.3333 6.90196 18.2368 7.14359 18.0648 7.32175C17.8929 7.49991 17.6598 7.6 17.4167 7.6H4.58333C4.34022 7.6 4.10706 7.49991 3.93515 7.32175C3.76324 7.14359 3.66667 6.90196 3.66667 6.65ZM0 0.95C0 0.698044 0.0965773 0.456408 0.268486 0.278249C0.440394 0.100089 0.673552 0 0.916667 0H21.0833C21.3264 0 21.5596 0.100089 21.7315 0.278249C21.9034 0.456408 22 0.698044 22 0.95C22 1.20196 21.9034 1.44359 21.7315 1.62175C21.5596 1.79991 21.3264 1.9 21.0833 1.9H0.916667C0.673552 1.9 0.440394 1.79991 0.268486 1.62175C0.0965773 1.44359 0 1.20196 0 0.95Z" fill="#81B29A"/>
</svg>
