<svg width="328" height="44" viewBox="0 0 328 44" fill="none" xmlns="http://www.w3.org/2000/svg">
<path d="M29.625 2.5V34H23.64L7.935 14.875V34H0.735V2.5H6.765L22.425 21.625V2.5H29.625ZM48.1028 34.36C45.5528 34.36 43.2578 33.835 41.2178 32.785C39.2078 31.705 37.6328 30.22 36.4928 28.33C35.3528 26.44 34.7828 24.295 34.7828 21.895C34.7828 19.495 35.3528 17.35 36.4928 15.46C37.6328 13.57 39.2078 12.1 41.2178 11.05C43.2578 9.97 45.5528 9.43 48.1028 9.43C50.6528 9.43 52.9328 9.97 54.9428 11.05C56.9528 12.1 58.5278 13.57 59.6678 15.46C60.8078 17.35 61.3778 19.495 61.3778 21.895C61.3778 24.295 60.8078 26.44 59.6678 28.33C58.5278 30.22 56.9528 31.705 54.9428 32.785C52.9328 33.835 50.6528 34.36 48.1028 34.36ZM48.1028 28.6C49.9028 28.6 51.3728 28 52.5128 26.8C53.6828 25.57 54.2678 23.935 54.2678 21.895C54.2678 19.855 53.6828 18.235 52.5128 17.035C51.3728 15.805 49.9028 15.19 48.1028 15.19C46.3028 15.19 44.8178 15.805 43.6478 17.035C42.4778 18.235 41.8928 19.855 41.8928 21.895C41.8928 23.935 42.4778 25.57 43.6478 26.8C44.8178 28 46.3028 28.6 48.1028 28.6ZM81.6851 32.83C80.9951 33.34 80.1401 33.73 79.1201 34C78.1301 34.24 77.0801 34.36 75.9701 34.36C73.0901 34.36 70.8551 33.625 69.2651 32.155C67.7051 30.685 66.9251 28.525 66.9251 25.675V15.73H63.1901V10.33H66.9251V4.435H73.9451V10.33H79.9751V15.73H73.9451V25.585C73.9451 26.605 74.2001 27.4 74.7101 27.97C75.2501 28.51 76.0001 28.78 76.9601 28.78C78.0701 28.78 79.0151 28.48 79.7951 27.88L81.6851 32.83ZM101.376 34.54C98.1057 34.54 95.1507 33.835 92.5107 32.425C89.9007 31.015 87.8457 29.08 86.3457 26.62C84.8757 24.13 84.1407 21.34 84.1407 18.25C84.1407 15.16 84.8757 12.385 86.3457 9.925C87.8457 7.435 89.9007 5.485 92.5107 4.075C95.1507 2.665 98.1057 1.96 101.376 1.96C104.646 1.96 107.586 2.665 110.196 4.075C112.806 5.485 114.861 7.435 116.361 9.925C117.861 12.385 118.611 15.16 118.611 18.25C118.611 21.34 117.861 24.13 116.361 26.62C114.861 29.08 112.806 31.015 110.196 32.425C107.586 33.835 104.646 34.54 101.376 34.54ZM101.376 28.33C103.236 28.33 104.916 27.91 106.416 27.07C107.916 26.2 109.086 25 109.926 23.47C110.796 21.94 111.231 20.2 111.231 18.25C111.231 16.3 110.796 14.56 109.926 13.03C109.086 11.5 107.916 10.315 106.416 9.475C104.916 8.605 103.236 8.17 101.376 8.17C99.5157 8.17 97.8357 8.605 96.3357 9.475C94.8357 10.315 93.6507 11.5 92.7807 13.03C91.9407 14.56 91.5207 16.3 91.5207 18.25C91.5207 20.2 91.9407 21.94 92.7807 23.47C93.6507 25 94.8357 26.2 96.3357 27.07C97.8357 27.91 99.5157 28.33 101.376 28.33ZM138.309 9.43C141.309 9.43 143.724 10.33 145.554 12.13C147.414 13.93 148.344 16.6 148.344 20.14V34H141.324V21.22C141.324 19.3 140.904 17.875 140.064 16.945C139.224 15.985 138.009 15.505 136.419 15.505C134.649 15.505 133.239 16.06 132.189 17.17C131.139 18.25 130.614 19.87 130.614 22.03V34H123.594V9.79H130.299V12.625C131.229 11.605 132.384 10.825 133.764 10.285C135.144 9.715 136.659 9.43 138.309 9.43ZM154.708 0.609998H161.728V34H154.708V0.609998ZM192.273 9.79L181.338 35.485C180.228 38.275 178.848 40.24 177.198 41.38C175.578 42.52 173.613 43.09 171.303 43.09C170.043 43.09 168.798 42.895 167.568 42.505C166.338 42.115 165.333 41.575 164.553 40.885L167.118 35.89C167.658 36.37 168.273 36.745 168.963 37.015C169.683 37.285 170.388 37.42 171.078 37.42C172.038 37.42 172.818 37.18 173.418 36.7C174.018 36.25 174.558 35.485 175.038 34.405L175.128 34.18L164.643 9.79H171.888L178.683 26.215L185.523 9.79H192.273ZM224.522 2.5V34H218.537L202.832 14.875V34H195.632V2.5H201.662L217.322 21.625V2.5H224.522ZM243 34.36C240.45 34.36 238.155 33.835 236.115 32.785C234.105 31.705 232.53 30.22 231.39 28.33C230.25 26.44 229.68 24.295 229.68 21.895C229.68 19.495 230.25 17.35 231.39 15.46C232.53 13.57 234.105 12.1 236.115 11.05C238.155 9.97 240.45 9.43 243 9.43C245.55 9.43 247.83 9.97 249.84 11.05C251.85 12.1 253.425 13.57 254.565 15.46C255.705 17.35 256.275 19.495 256.275 21.895C256.275 24.295 255.705 26.44 254.565 28.33C253.425 30.22 251.85 31.705 249.84 32.785C247.83 33.835 245.55 34.36 243 34.36ZM243 28.6C244.8 28.6 246.27 28 247.41 26.8C248.58 25.57 249.165 23.935 249.165 21.895C249.165 19.855 248.58 18.235 247.41 17.035C246.27 15.805 244.8 15.19 243 15.19C241.2 15.19 239.715 15.805 238.545 17.035C237.375 18.235 236.79 19.855 236.79 21.895C236.79 23.935 237.375 25.57 238.545 26.8C239.715 28 241.2 28.6 243 28.6ZM276.583 32.83C275.893 33.34 275.038 33.73 274.018 34C273.028 34.24 271.978 34.36 270.868 34.36C267.988 34.36 265.753 33.625 264.163 32.155C262.603 30.685 261.823 28.525 261.823 25.675V15.73H258.088V10.33H261.823V4.435H268.843V10.33H274.873V15.73H268.843V25.585C268.843 26.605 269.098 27.4 269.608 27.97C270.148 28.51 270.898 28.78 271.858 28.78C272.968 28.78 273.913 28.48 274.693 27.88L276.583 32.83ZM303.491 21.985C303.491 22.075 303.446 22.705 303.356 23.875H285.041C285.371 25.375 286.151 26.56 287.381 27.43C288.611 28.3 290.141 28.735 291.971 28.735C293.231 28.735 294.341 28.555 295.301 28.195C296.291 27.805 297.206 27.205 298.046 26.395L301.781 30.445C299.501 33.055 296.171 34.36 291.791 34.36C289.061 34.36 286.646 33.835 284.546 32.785C282.446 31.705 280.826 30.22 279.686 28.33C278.546 26.44 277.976 24.295 277.976 21.895C277.976 19.525 278.531 17.395 279.641 15.505C280.781 13.585 282.326 12.1 284.276 11.05C286.256 9.97 288.461 9.43 290.891 9.43C293.261 9.43 295.406 9.94 297.326 10.96C299.246 11.98 300.746 13.45 301.826 15.37C302.936 17.26 303.491 19.465 303.491 21.985ZM290.936 14.74C289.346 14.74 288.011 15.19 286.931 16.09C285.851 16.99 285.191 18.22 284.951 19.78H296.876C296.636 18.25 295.976 17.035 294.896 16.135C293.816 15.205 292.496 14.74 290.936 14.74ZM316.31 34.36C314.3 34.36 312.335 34.12 310.415 33.64C308.495 33.13 306.965 32.5 305.825 31.75L308.165 26.71C309.245 27.4 310.55 27.97 312.08 28.42C313.61 28.84 315.11 29.05 316.58 29.05C319.55 29.05 321.035 28.315 321.035 26.845C321.035 26.155 320.63 25.66 319.82 25.36C319.01 25.06 317.765 24.805 316.085 24.595C314.105 24.295 312.47 23.95 311.18 23.56C309.89 23.17 308.765 22.48 307.805 21.49C306.875 20.5 306.41 19.09 306.41 17.26C306.41 15.73 306.845 14.38 307.715 13.21C308.615 12.01 309.905 11.08 311.585 10.42C313.295 9.76 315.305 9.43 317.615 9.43C319.325 9.43 321.02 9.625 322.7 10.015C324.41 10.375 325.82 10.885 326.93 11.545L324.59 16.54C322.46 15.34 320.135 14.74 317.615 14.74C316.115 14.74 314.99 14.95 314.24 15.37C313.49 15.79 313.115 16.33 313.115 16.99C313.115 17.74 313.52 18.265 314.33 18.565C315.14 18.865 316.43 19.15 318.2 19.42C320.18 19.75 321.8 20.11 323.06 20.5C324.32 20.86 325.415 21.535 326.345 22.525C327.275 23.515 327.74 24.895 327.74 26.665C327.74 28.165 327.29 29.5 326.39 30.67C325.49 31.84 324.17 32.755 322.43 33.415C320.72 34.045 318.68 34.36 316.31 34.36Z" fill="#3D405B"/>
</svg>
