<svg width="45" height="45" viewBox="0 0 45 45" fill="none" xmlns="http://www.w3.org/2000/svg">
<path d="M41.5942 22.1924L24.6138 5.22069L23.4756 4.08251C23.2162 3.82489 22.8655 3.6803 22.5 3.6803C22.1345 3.6803 21.7837 3.82489 21.5244 4.08251L3.40576 22.1924C3.14003 22.4571 2.93002 22.7723 2.78812 23.1195C2.64622 23.4667 2.57532 23.8388 2.57959 24.2138C2.59717 25.7607 3.88476 26.9956 5.43164 26.9956H7.29932V41.3086H37.7007V26.9956H39.6079C40.3594 26.9956 41.0669 26.7012 41.5986 26.1694C41.8605 25.9084 42.0679 25.5981 42.209 25.2564C42.35 24.9147 42.4219 24.5484 42.4204 24.1787C42.4204 23.4316 42.126 22.7241 41.5942 22.1924ZM24.9609 38.1445H20.0391V29.1797H24.9609V38.1445ZM34.5366 23.8315V38.1445H27.7734V28.125C27.7734 27.1538 26.9868 26.3672 26.0156 26.3672H18.9844C18.0132 26.3672 17.2266 27.1538 17.2266 28.125V38.1445H10.4634V23.8315H6.24463L22.5044 7.58495L23.5195 8.60008L38.7598 23.8315H34.5366Z" fill="white"/>
</svg>
