<svg width="22" height="19" viewBox="0 0 22 19" fill="none" xmlns="http://www.w3.org/2000/svg">
<path fill-rule="evenodd" clip-rule="evenodd" d="M22 18.05C22 17.798 21.9034 17.5564 21.7315 17.3782C21.5596 17.2001 21.3264 17.1 21.0833 17.1H8.25C8.00688 17.1 7.77373 17.2001 7.60182 17.3782C7.42991 17.5564 7.33333 17.798 7.33333 18.05C7.33333 18.302 7.42991 18.5436 7.60182 18.7218C7.77373 18.8999 8.00688 19 8.25 19H21.0833C21.3264 19 21.5596 18.8999 21.7315 18.7218C21.9034 18.5436 22 18.302 22 18.05ZM22 12.35C22 12.098 21.9034 11.8564 21.7315 11.6782C21.5596 11.5001 21.3264 11.4 21.0833 11.4H0.916666C0.673552 11.4 0.440392 11.5001 0.268484 11.6782C0.0965767 11.8564 0 12.098 0 12.35C0 12.602 0.0965767 12.8436 0.268484 13.0218C0.440392 13.1999 0.673552 13.3 0.916666 13.3H21.0833C21.3264 13.3 21.5596 13.1999 21.7315 13.0218C21.9034 12.8436 22 12.602 22 12.35ZM22 6.65C22 6.39804 21.9034 6.15641 21.7315 5.97825C21.5596 5.80009 21.3264 5.7 21.0833 5.7H8.25C8.00688 5.7 7.77373 5.80009 7.60182 5.97825C7.42991 6.15641 7.33333 6.39804 7.33333 6.65C7.33333 6.90196 7.42991 7.14359 7.60182 7.32175C7.77373 7.49991 8.00688 7.6 8.25 7.6H21.0833C21.3264 7.6 21.5596 7.49991 21.7315 7.32175C21.9034 7.14359 22 6.90196 22 6.65ZM22 0.95C22 0.698044 21.9034 0.456408 21.7315 0.278249C21.5596 0.100089 21.3264 0 21.0833 0H0.916666C0.673552 0 0.440392 0.100089 0.268484 0.278249C0.0965767 0.456408 0 0.698044 0 0.95C0 1.20196 0.0965767 1.44359 0.268484 1.62175C0.440392 1.79991 0.673552 1.9 0.916666 1.9H21.0833C21.3264 1.9 21.5596 1.79991 21.7315 1.62175C21.9034 1.44359 22 1.20196 22 0.95Z" fill="#81B29A"/>
</svg>
