<svg width="38" height="38" viewBox="0 0 38 38" fill="none" xmlns="http://www.w3.org/2000/svg">
<g clip-path="url(#clip0_44_177)">
<path d="M27.8872 24.567C30.1869 21.4289 31.217 17.5382 30.7712 13.6732C30.3255 9.80829 28.4368 6.25417 25.4832 3.72193C22.5295 1.18968 18.7286 -0.133947 14.841 0.0158517C10.9533 0.16565 7.26556 1.77783 4.51551 4.52985C1.76546 7.28187 0.155916 10.9708 0.00889929 14.8586C-0.138118 18.7463 1.18823 22.5463 3.72259 25.4981C6.25695 28.45 9.81241 30.336 13.6777 30.779C17.5429 31.222 21.4329 30.1892 24.5694 27.8872H24.567C24.6382 27.9822 24.7142 28.0725 24.7997 28.1604L33.9435 37.3041C34.3888 37.7498 34.993 38.0003 35.623 38.0005C36.253 38.0007 36.8573 37.7506 37.3029 37.3053C37.7486 36.86 37.9991 36.2559 37.9993 35.6258C37.9995 34.9958 37.7495 34.3915 37.3041 33.9459L28.1604 24.8021C28.0755 24.7162 27.9842 24.6368 27.8872 24.5646V24.567ZM28.5 15.4375C28.5 17.1529 28.1621 18.8515 27.5057 20.4363C26.8492 22.0211 25.887 23.4611 24.6741 24.6741C23.4611 25.887 22.0211 26.8492 20.4363 27.5057C18.8515 28.1621 17.1529 28.5 15.4375 28.5C13.7221 28.5 12.0235 28.1621 10.4387 27.5057C8.85388 26.8492 7.41388 25.887 6.20091 24.6741C4.98795 23.4611 4.02577 22.0211 3.36932 20.4363C2.71287 18.8515 2.375 17.1529 2.375 15.4375C2.375 11.9731 3.75122 8.65061 6.20091 6.20091C8.65061 3.75122 11.9731 2.37499 15.4375 2.37499C18.9019 2.37499 22.2244 3.75122 24.6741 6.20091C27.1238 8.65061 28.5 11.9731 28.5 15.4375Z" fill="#81B29A"/>
</g>
<defs>
<clipPath id="clip0_44_177">
<rect width="38" height="38" fill="white"/>
</clipPath>
</defs>
</svg>
