<svg width="45" height="45" viewBox="0 0 45 45" fill="none" xmlns="http://www.w3.org/2000/svg">
<path d="M26.1047 44.7H19.2797C18.8521 44.7001 18.4373 44.554 18.1041 44.2859C17.7709 44.0179 17.5394 43.644 17.4479 43.2263L16.6847 39.6938C15.6667 39.2477 14.7014 38.6899 13.8066 38.0306L10.3622 39.1275C9.95453 39.2575 9.51463 39.2442 9.11558 39.0897C8.71652 38.9352 8.38232 38.6488 8.16848 38.2781L4.74848 32.37C4.53687 31.999 4.45744 31.5672 4.52318 31.1452C4.58892 30.7232 4.79593 30.3359 5.11035 30.0469L7.78223 27.6094C7.66072 26.5052 7.66072 25.3911 7.78223 24.2869L5.11035 21.855C4.79549 21.5658 4.58819 21.1783 4.52244 20.7559C4.4567 20.3334 4.53639 19.9012 4.74848 19.53L8.16098 13.6181C8.37482 13.2475 8.70902 12.9611 9.10808 12.8066C9.50713 12.6521 9.94703 12.6388 10.3547 12.7688L13.7991 13.8656C14.2566 13.5281 14.7329 13.2131 15.2241 12.9281C15.6985 12.6619 16.186 12.42 16.6847 12.2044L17.4497 8.67564C17.5408 8.25788 17.7719 7.8838 18.1048 7.61542C18.4376 7.34703 18.8522 7.20046 19.2797 7.20001H26.1047C26.5323 7.20046 26.9469 7.34703 27.2797 7.61542C27.6125 7.8838 27.8437 8.25788 27.9347 8.67564L28.7072 12.2063C29.7247 12.6523 30.6893 13.2101 31.5835 13.8694L35.0297 12.7725C35.4372 12.643 35.8766 12.6566 36.2753 12.8111C36.6739 12.9655 37.0078 13.2516 37.2216 13.6219L40.6341 19.5338C41.0691 20.2969 40.9191 21.2625 40.2722 21.8569L37.6003 24.2944C37.7219 25.3986 37.7219 26.5127 37.6003 27.6169L40.2722 30.0544C40.9191 30.6506 41.0691 31.6144 40.6341 32.3775L37.2216 38.2894C37.0078 38.66 36.6736 38.9464 36.2745 39.1009C35.8754 39.2554 35.4355 39.2688 35.0278 39.1388L31.5835 38.0419C30.6894 38.7007 29.7247 39.2578 28.7072 39.7031L27.9347 43.2263C27.8433 43.6437 27.612 44.0173 27.2792 44.2853C26.9464 44.5534 26.532 44.6997 26.1047 44.7ZM14.4797 33.8794L16.0172 35.0044C16.3641 35.2594 16.7241 35.4938 17.0991 35.7075C17.4516 35.9119 17.8116 36.0956 18.1847 36.2625L19.9341 37.0294L20.791 40.95H24.5972L25.4541 37.0275L27.2035 36.2606C27.9666 35.9231 28.6922 35.505 29.3654 35.0119L30.9029 33.8869L34.7316 35.1056L36.6347 31.8094L33.6666 29.1038L33.8766 27.2063C33.9704 26.3756 33.9704 25.5375 33.8766 24.7088L33.6666 22.8113L36.6366 20.1L34.7316 16.8019L30.9047 18.0206L29.3654 16.8956C28.6919 16.4001 27.9671 15.9783 27.2035 15.6375L25.4541 14.8706L24.5972 10.95H20.791L19.9285 14.8725L18.1847 15.6375C17.4201 15.9724 16.695 16.3912 16.0229 16.8863L14.4835 18.0113L10.6585 16.7925L8.7516 20.1L11.7197 22.8019L11.5097 24.7013C11.416 25.5319 11.416 26.37 11.5097 27.1988L11.7197 29.0963L8.7516 31.8019L10.6547 35.0981L14.4797 33.8794V33.8794ZM22.6847 33.45C20.6956 33.45 18.7879 32.6598 17.3814 31.2533C15.9749 29.8468 15.1847 27.9391 15.1847 25.95C15.1847 23.9609 15.9749 22.0532 17.3814 20.6467C18.7879 19.2402 20.6956 18.45 22.6847 18.45C24.6739 18.45 26.5815 19.2402 27.988 20.6467C29.3945 22.0532 30.1847 23.9609 30.1847 25.95C30.1847 27.9391 29.3945 29.8468 27.988 31.2533C26.5815 32.6598 24.6739 33.45 22.6847 33.45ZM22.6847 22.2C21.9504 22.2008 21.2324 22.4171 20.6199 22.8222C20.0074 23.2272 19.5273 23.8032 19.2392 24.4787C18.9511 25.1541 18.8676 25.8993 18.9992 26.6217C19.1307 27.3442 19.4715 28.0121 19.9792 28.5427C20.4869 29.0732 21.1392 29.443 21.8552 29.6062C22.5711 29.7694 23.3192 29.7188 24.0067 29.4607C24.6942 29.2026 25.2907 28.7483 25.7224 28.1542C26.154 27.5601 26.4017 26.8523 26.4347 26.1188V26.8688V25.95C26.4347 24.9555 26.0396 24.0016 25.3364 23.2984C24.6331 22.5951 23.6793 22.2 22.6847 22.2Z" fill="white"/>
</svg>
