<svg width="31" height="30" viewBox="0 0 31 30" fill="none" xmlns="http://www.w3.org/2000/svg">
<path fill-rule="evenodd" clip-rule="evenodd" d="M3.875 23.4375C3.875 23.1889 3.97706 22.9504 4.15874 22.7746C4.34042 22.5988 4.58682 22.5 4.84375 22.5H18.4062C18.6632 22.5 18.9096 22.5988 19.0913 22.7746C19.2729 22.9504 19.375 23.1889 19.375 23.4375C19.375 23.6861 19.2729 23.9246 19.0913 24.1004C18.9096 24.2762 18.6632 24.375 18.4062 24.375H4.84375C4.58682 24.375 4.34042 24.2762 4.15874 24.1004C3.97706 23.9246 3.875 23.6861 3.875 23.4375ZM3.875 17.8125C3.875 17.5639 3.97706 17.3254 4.15874 17.1496C4.34042 16.9738 4.58682 16.875 4.84375 16.875H26.1562C26.4132 16.875 26.6596 16.9738 26.8413 17.1496C27.0229 17.3254 27.125 17.5639 27.125 17.8125C27.125 18.0611 27.0229 18.2996 26.8413 18.4754C26.6596 18.6512 26.4132 18.75 26.1562 18.75H4.84375C4.58682 18.75 4.34042 18.6512 4.15874 18.4754C3.97706 18.2996 3.875 18.0611 3.875 17.8125ZM3.875 12.1875C3.875 11.9389 3.97706 11.7004 4.15874 11.5246C4.34042 11.3488 4.58682 11.25 4.84375 11.25H26.1562C26.4132 11.25 26.6596 11.3488 26.8413 11.5246C27.0229 11.7004 27.125 11.9389 27.125 12.1875C27.125 12.4361 27.0229 12.6746 26.8413 12.8504C26.6596 13.0262 26.4132 13.125 26.1562 13.125H4.84375C4.58682 13.125 4.34042 13.0262 4.15874 12.8504C3.97706 12.6746 3.875 12.4361 3.875 12.1875ZM11.625 6.5625C11.625 6.31386 11.7271 6.0754 11.9087 5.89959C12.0904 5.72377 12.3368 5.625 12.5938 5.625H26.1562C26.4132 5.625 26.6596 5.72377 26.8413 5.89959C27.0229 6.0754 27.125 6.31386 27.125 6.5625C27.125 6.81114 27.0229 7.0496 26.8413 7.22541C26.6596 7.40123 26.4132 7.5 26.1562 7.5H12.5938C12.3368 7.5 12.0904 7.40123 11.9087 7.22541C11.7271 7.0496 11.625 6.81114 11.625 6.5625Z" fill="#81B29A"/>
</svg>
