<svg width="22" height="21" viewBox="0 0 22 21" fill="none" xmlns="http://www.w3.org/2000/svg">
<g clip-path="url(#clip0_52_454)">
<path d="M17.0954 13.2169C19.4329 13.8928 22 14.6344 22 10.5C22 8.4233 21.3549 6.39323 20.1462 4.66652C18.9375 2.9398 17.2195 1.59399 15.2095 0.799269C13.1995 0.00454945 10.9878 -0.203386 8.85401 0.201759C6.72022 0.606904 4.76021 1.60693 3.22183 3.07538C1.68345 4.54383 0.635804 6.41476 0.211367 8.45156C-0.213071 10.4884 0.00476609 12.5996 0.83733 14.5182C1.66989 16.4368 3.07979 18.0767 4.88873 19.2304C6.69767 20.3842 8.82441 21 11 21C13.7445 21 13.5108 19.026 13.2674 16.9575C13.0969 15.5124 12.9209 14.0214 13.75 13.125C14.3894 12.4333 15.7025 12.8139 17.0954 13.2169ZM11 6.5625C10.7292 6.5625 10.461 6.51158 10.2107 6.41264C9.96049 6.3137 9.73312 6.16869 9.5416 5.98587C9.35008 5.80306 9.19815 5.58602 9.0945 5.34716C8.99085 5.1083 8.9375 4.85229 8.93751 4.59375C8.9375 4.33521 8.99085 4.07921 9.0945 3.84035C9.19815 3.60149 9.35008 3.38445 9.5416 3.20164C9.73312 3.01882 9.96049 2.87381 10.2107 2.77487C10.461 2.67593 10.7292 2.625 11 2.625C11.547 2.625 12.0716 2.83243 12.4584 3.20164C12.8452 3.57085 13.0625 4.07161 13.0625 4.59375C13.0625 5.1159 12.8452 5.61666 12.4584 5.98587C12.0716 6.35508 11.547 6.5625 11 6.5625ZM17.1875 10.5C16.6405 10.5 16.1159 10.2926 15.7291 9.92337C15.3423 9.55416 15.125 9.0534 15.125 8.53125C15.125 8.00911 15.3423 7.50835 15.7291 7.13914C16.1159 6.76993 16.6405 6.5625 17.1875 6.5625C17.7345 6.5625 18.2591 6.76993 18.6459 7.13914C19.0327 7.50835 19.25 8.00911 19.25 8.53125C19.25 9.0534 19.0327 9.55416 18.6459 9.92337C18.2591 10.2926 17.7345 10.5 17.1875 10.5ZM6.87501 8.53125C6.87501 8.78979 6.82166 9.0458 6.71801 9.28466C6.61436 9.52352 6.46243 9.74056 6.27091 9.92337C6.07939 10.1062 5.85202 10.2512 5.60179 10.3501C5.35156 10.4491 5.08336 10.5 4.8125 10.5C4.54165 10.5 4.27345 10.4491 4.02322 10.3501C3.77299 10.2512 3.54562 10.1062 3.3541 9.92337C3.16258 9.74056 3.01065 9.52352 2.907 9.28466C2.80335 9.0458 2.75001 8.78979 2.75001 8.53125C2.75001 8.00911 2.9673 7.50835 3.3541 7.13914C3.74089 6.76993 4.2655 6.5625 4.8125 6.5625C5.35951 6.5625 5.88412 6.76993 6.27091 7.13914C6.65771 7.50835 6.87501 8.00911 6.87501 8.53125ZM7.56251 17.0625C7.0155 17.0625 6.49089 16.8551 6.1041 16.4859C5.7173 16.1167 5.50001 15.6159 5.50001 15.0938C5.50001 14.5716 5.7173 14.0708 6.1041 13.7016C6.49089 13.3324 7.0155 13.125 7.56251 13.125C8.10951 13.125 8.63412 13.3324 9.02091 13.7016C9.40771 14.0708 9.62501 14.5716 9.62501 15.0938C9.62501 15.6159 9.40771 16.1167 9.02091 16.4859C8.63412 16.8551 8.10951 17.0625 7.56251 17.0625Z" fill="#81B29A"/>
</g>
<defs>
<clipPath id="clip0_52_454">
<rect width="22" height="21" fill="white"/>
</clipPath>
</defs>
</svg>
